<svg version="1" xmlns="http://www.w3.org/2000/svg" width="422.667" height="422.667" viewBox="0 0 317.000000 317.000000"><path d="M208 66.2c-7.2 1.2-19.1 3.9-24 5.5-2.5.8-5.2 1.6-6 1.8-12.1 2.6-55.1 23.1-80 38.1-22.7 13.7-61.4 40.6-73.4 50.9-.6.5-4.3 3.7-8.1 7C3.9 180.2 2 182.3 2 185.3c0 4.1 2.8 9.5 6.5 12.4 3.2 2.5 14 7.5 14.7 6.7.3-.2 2 .1 3.9.6 1.9.6 6.8 1.3 10.9 1.6 12.8.9 17.3 1.3 17.8 1.8.3.3-.2 1.6-1.1 2.9-1.3 2-1.3 2.6-.1 4.2.8 1 1.4 4.2 1.4 7.2v5.3h12.3c20.5 0 52.1.7 54.2 1.2 2.1.6 12.3 2 16.5 2.3 2.5.2 12.1 1.5 15 2 .8.2 4.4.6 8 1 8.2.9 10.5 1.1 16 2 2.5.3 6.1.8 8 1 1.9.2 5.5.6 8 .9 2.5.3 6.8.8 9.5 1.1 2.8.3 6.1.8 7.5 1 16.9 2.5 40.5 3.9 69 4 22.5 0 25.9-.2 29.3-1.8 5.3-2.6 5.1-6.2-.5-7.3-2.3-.4-24.6-3.5-28.3-3.8-6.9-.7-12.5-1.9-12.5-2.6 0-.5 1.5-1.8 3.4-2.9 4.6-2.9 6.5-6 6.7-11.5.3-4.4 0-5-3.9-8.5-2.3-2.1-4.2-4.1-4.2-4.4 0-.3 2.6-1.3 5.8-2.3 18.2-5.7 28.9-13.5 34.8-25.4 3.2-6.5 4.1-13.5 3.8-30.1-.3-14.9-.8-19.8-2.9-27.4-.9-3.3-2-7.4-2.5-9.1-2.3-9.4-16.7-25-28.7-31.1-6.9-3.6-13.9-6.4-15.3-6.2-.3 0-1.7-.4-3.1-1-1.5-.5-4.7-1.2-7-1.6-2.4-.3-5.3-.9-6.4-1.2-2.9-.9-35.2-1-40.5-.1z"/></svg>